<?xml version="1.0" encoding="UTF-8" standalone="no"?>
<!DOCTYPE svg PUBLIC "-//W3C//DTD SVG 1.1//EN"
 "http://www.w3.org/Graphics/SVG/1.1/DTD/svg11.dtd">
<!-- Generated by graphviz version 2.36.0 (20140111.2315)
 -->
<!-- Title: G Pages: 1 -->
<svg width="955pt" height="604pt"
 viewBox="0.00 0.00 955.20 604.40" xmlns="http://www.w3.org/2000/svg" xmlns:xlink="http://www.w3.org/1999/xlink">
<g id="graph0" class="graph" transform="scale(1 1) rotate(0) translate(21.6 582.797)">
<title>G</title>
<polygon fill="#111111" stroke="none" points="-21.6,21.6 -21.6,-582.797 933.6,-582.797 933.6,21.6 -21.6,21.6"/>
<!-- applyMiddleware.ts -->
<g id="node1" class="node"><title>applyMiddleware.ts</title>
<path fill="none" stroke="#c6c5fe" d="M230.333,-433.281C230.333,-433.281 109.667,-433.281 109.667,-433.281 105.833,-433.281 102,-429.448 102,-425.615 102,-425.615 102,-417.948 102,-417.948 102,-414.115 105.833,-410.281 109.667,-410.281 109.667,-410.281 230.333,-410.281 230.333,-410.281 234.167,-410.281 238,-414.115 238,-417.948 238,-417.948 238,-425.615 238,-425.615 238,-429.448 234.167,-433.281 230.333,-433.281"/>
<text text-anchor="middle" x="170" y="-418.081" font-family="Arial" font-size="14.00" fill="#c6c5fe">applyMiddleware.ts</text>
</g>
<!-- compose.ts -->
<g id="node2" class="node"><title>compose.ts</title>
<path fill="none" stroke="#cfffac" d="M385.333,-532.281C385.333,-532.281 312.667,-532.281 312.667,-532.281 308.833,-532.281 305,-528.448 305,-524.615 305,-524.615 305,-516.948 305,-516.948 305,-513.115 308.833,-509.281 312.667,-509.281 312.667,-509.281 385.333,-509.281 385.333,-509.281 389.167,-509.281 393,-513.115 393,-516.948 393,-516.948 393,-524.615 393,-524.615 393,-528.448 389.167,-532.281 385.333,-532.281"/>
<text text-anchor="middle" x="349" y="-517.081" font-family="Arial" font-size="14.00" fill="#cfffac">compose.ts</text>
</g>
<!-- applyMiddleware.ts&#45;&gt;compose.ts -->
<g id="edge1" class="edge"><title>applyMiddleware.ts&#45;&gt;compose.ts</title>
<path fill="none" stroke="#757575" d="M187.932,-433.12C201.56,-442.315 221.15,-455.687 238,-467.781 254.248,-479.444 256.36,-485.357 274,-494.781 281.854,-498.978 290.523,-502.726 299.08,-505.983"/>
<polygon fill="#757575" stroke="#757575" points="298.048,-509.332 308.643,-509.447 300.433,-502.75 298.048,-509.332"/>
</g>
<!-- types/actions.ts -->
<g id="node3" class="node"><title>types/actions.ts</title>
<path fill="none" stroke="#cfffac" d="M903.833,-345.281C903.833,-345.281 806.167,-345.281 806.167,-345.281 802.333,-345.281 798.5,-341.448 798.5,-337.615 798.5,-337.615 798.5,-329.948 798.5,-329.948 798.5,-326.115 802.333,-322.281 806.167,-322.281 806.167,-322.281 903.833,-322.281 903.833,-322.281 907.667,-322.281 911.5,-326.115 911.5,-329.948 911.5,-329.948 911.5,-337.615 911.5,-337.615 911.5,-341.448 907.667,-345.281 903.833,-345.281"/>
<text text-anchor="middle" x="855" y="-330.081" font-family="Arial" font-size="14.00" fill="#cfffac">types/actions.ts</text>
</g>
<!-- applyMiddleware.ts&#45;&gt;types/actions.ts -->
<g id="edge2" class="edge"><title>applyMiddleware.ts&#45;&gt;types/actions.ts</title>
<path fill="none" stroke="#757575" d="M218.597,-433.082C225.119,-434.65 231.727,-436.248 238,-437.781 254.021,-441.697 257.631,-444.766 274,-446.781 340.167,-454.927 357.613,-452.883 424,-446.781 576.333,-432.78 617.739,-432.673 762,-381.781 785.003,-373.667 809.409,-360.708 827.299,-350.3"/>
<polygon fill="#757575" stroke="#757575" points="829.203,-353.24 836.019,-345.129 825.632,-347.22 829.203,-353.24"/>
</g>
<!-- types/middleware.ts -->
<g id="node4" class="node"><title>types/middleware.ts</title>
<path fill="none" stroke="#c6c5fe" d="M411.333,-414.281C411.333,-414.281 286.667,-414.281 286.667,-414.281 282.833,-414.281 279,-410.448 279,-406.615 279,-406.615 279,-398.948 279,-398.948 279,-395.115 282.833,-391.281 286.667,-391.281 286.667,-391.281 411.333,-391.281 411.333,-391.281 415.167,-391.281 419,-395.115 419,-398.948 419,-398.948 419,-406.615 419,-406.615 419,-410.448 415.167,-414.281 411.333,-414.281"/>
<text text-anchor="middle" x="349" y="-399.081" font-family="Arial" font-size="14.00" fill="#c6c5fe">types/middleware.ts</text>
</g>
<!-- applyMiddleware.ts&#45;&gt;types/middleware.ts -->
<g id="edge3" class="edge"><title>applyMiddleware.ts&#45;&gt;types/middleware.ts</title>
<path fill="none" stroke="#757575" d="M238.168,-414.571C248.144,-413.501 258.504,-412.388 268.699,-411.294"/>
<polygon fill="#757575" stroke="#757575" points="269.249,-414.755 278.819,-410.208 268.502,-407.795 269.249,-414.755"/>
</g>
<!-- types/reducers.ts -->
<g id="node5" class="node"><title>types/reducers.ts</title>
<path fill="none" stroke="#c6c5fe" d="M753.833,-286.281C753.833,-286.281 646.167,-286.281 646.167,-286.281 642.333,-286.281 638.5,-282.448 638.5,-278.615 638.5,-278.615 638.5,-270.948 638.5,-270.948 638.5,-267.115 642.333,-263.281 646.167,-263.281 646.167,-263.281 753.833,-263.281 753.833,-263.281 757.667,-263.281 761.5,-267.115 761.5,-270.948 761.5,-270.948 761.5,-278.615 761.5,-278.615 761.5,-282.448 757.667,-286.281 753.833,-286.281"/>
<text text-anchor="middle" x="700" y="-271.081" font-family="Arial" font-size="14.00" fill="#c6c5fe">types/reducers.ts</text>
</g>
<!-- applyMiddleware.ts&#45;&gt;types/reducers.ts -->
<g id="edge4" class="edge"><title>applyMiddleware.ts&#45;&gt;types/reducers.ts</title>
<path fill="none" stroke="#757575" d="M238.28,-430.64C327.846,-439.013 488.159,-441.791 602,-374.781 637.146,-354.094 668.076,-317.275 685.095,-294.55"/>
<polygon fill="#757575" stroke="#757575" points="688.039,-296.454 691.115,-286.316 682.388,-292.323 688.039,-296.454"/>
</g>
<!-- types/store.ts -->
<g id="node6" class="node"><title>types/store.ts</title>
<path fill="none" stroke="#c6c5fe" d="M573.333,-366.281C573.333,-366.281 488.667,-366.281 488.667,-366.281 484.833,-366.281 481,-362.448 481,-358.615 481,-358.615 481,-350.948 481,-350.948 481,-347.115 484.833,-343.281 488.667,-343.281 488.667,-343.281 573.333,-343.281 573.333,-343.281 577.167,-343.281 581,-347.115 581,-350.948 581,-350.948 581,-358.615 581,-358.615 581,-362.448 577.167,-366.281 573.333,-366.281"/>
<text text-anchor="middle" x="531" y="-351.081" font-family="Arial" font-size="14.00" fill="#c6c5fe">types/store.ts</text>
</g>
<!-- applyMiddleware.ts&#45;&gt;types/store.ts -->
<g id="edge5" class="edge"><title>applyMiddleware.ts&#45;&gt;types/store.ts</title>
<path fill="none" stroke="#757575" d="M194.97,-410.373C215.479,-401.127 246.035,-388.558 274,-381.781 340.169,-365.747 418.243,-359.234 470.62,-356.59"/>
<polygon fill="#757575" stroke="#757575" points="470.919,-360.08 480.742,-356.111 470.588,-353.088 470.919,-360.08"/>
</g>
<!-- types/middleware.ts&#45;&gt;types/actions.ts -->
<g id="edge30" class="edge"><title>types/middleware.ts&#45;&gt;types/actions.ts</title>
<path fill="none" stroke="#757575" d="M419.337,-398.321C501.58,-392.314 642.584,-379.757 762,-357.781 776.37,-355.137 791.801,-351.452 805.842,-347.762"/>
<polygon fill="#757575" stroke="#757575" points="807.037,-351.065 815.786,-345.089 805.22,-344.305 807.037,-351.065"/>
</g>
<!-- types/middleware.ts&#45;&gt;types/store.ts -->
<g id="edge31" class="edge"><title>types/middleware.ts&#45;&gt;types/store.ts</title>
<path fill="none" stroke="#757575" d="M392.202,-391.528C417.837,-384.692 450.761,-375.912 477.998,-368.649"/>
<polygon fill="#757575" stroke="#757575" points="478.99,-372.006 487.751,-366.048 477.187,-365.243 478.99,-372.006"/>
</g>
<!-- types/reducers.ts&#45;&gt;types/actions.ts -->
<g id="edge32" class="edge"><title>types/reducers.ts&#45;&gt;types/actions.ts</title>
<path fill="none" stroke="#757575" d="M730.5,-286.157C754.524,-295.421 788.644,-308.579 814.935,-318.717"/>
<polygon fill="#757575" stroke="#757575" points="814.001,-322.108 824.591,-322.441 816.52,-315.577 814.001,-322.108"/>
</g>
<!-- types/store.ts&#45;&gt;types/actions.ts -->
<g id="edge33" class="edge"><title>types/store.ts&#45;&gt;types/actions.ts</title>
<path fill="none" stroke="#757575" d="M581.255,-351.569C636.547,-347.963 726.535,-342.094 787.907,-338.092"/>
<polygon fill="#757575" stroke="#757575" points="788.508,-341.56 798.259,-337.417 788.053,-334.575 788.508,-341.56"/>
</g>
<!-- types/store.ts&#45;&gt;types/reducers.ts -->
<g id="edge34" class="edge"><title>types/store.ts&#45;&gt;types/reducers.ts</title>
<path fill="none" stroke="#757575" d="M555.573,-343.489C584.459,-329.651 633.57,-306.125 666.148,-290.519"/>
<polygon fill="#757575" stroke="#757575" points="667.771,-293.623 675.277,-286.146 664.747,-287.309 667.771,-293.623"/>
</g>
<!-- bindActionCreators.ts -->
<g id="node7" class="node"><title>bindActionCreators.ts</title>
<path fill="none" stroke="#c6c5fe" d="M416.333,-296.281C416.333,-296.281 281.667,-296.281 281.667,-296.281 277.833,-296.281 274,-292.448 274,-288.615 274,-288.615 274,-280.948 274,-280.948 274,-277.115 277.833,-273.281 281.667,-273.281 281.667,-273.281 416.333,-273.281 416.333,-273.281 420.167,-273.281 424,-277.115 424,-280.948 424,-280.948 424,-288.615 424,-288.615 424,-292.448 420.167,-296.281 416.333,-296.281"/>
<text text-anchor="middle" x="349" y="-281.081" font-family="Arial" font-size="14.00" fill="#c6c5fe">bindActionCreators.ts</text>
</g>
<!-- bindActionCreators.ts&#45;&gt;types/actions.ts -->
<g id="edge6" class="edge"><title>bindActionCreators.ts&#45;&gt;types/actions.ts</title>
<path fill="none" stroke="#757575" d="M424.096,-291.985C522.337,-301.536 694.201,-318.246 788.122,-327.377"/>
<polygon fill="#757575" stroke="#757575" points="788.056,-330.887 798.348,-328.371 788.733,-323.92 788.056,-330.887"/>
</g>
<!-- bindActionCreators.ts&#45;&gt;types/store.ts -->
<g id="edge7" class="edge"><title>bindActionCreators.ts&#45;&gt;types/store.ts</title>
<path fill="none" stroke="#757575" d="M384.979,-296.061C397.428,-300.34 411.462,-305.469 424,-310.781 440.471,-317.76 443.591,-321.657 460,-328.781 468.914,-332.652 478.609,-336.485 487.865,-339.971"/>
<polygon fill="#757575" stroke="#757575" points="486.706,-343.274 497.299,-343.464 489.137,-336.709 486.706,-343.274"/>
</g>
<!-- combineReducers.ts -->
<g id="node8" class="node"><title>combineReducers.ts</title>
<path fill="none" stroke="#c6c5fe" d="M413.333,-178.281C413.333,-178.281 284.667,-178.281 284.667,-178.281 280.833,-178.281 277,-174.448 277,-170.615 277,-170.615 277,-162.948 277,-162.948 277,-159.115 280.833,-155.281 284.667,-155.281 284.667,-155.281 413.333,-155.281 413.333,-155.281 417.167,-155.281 421,-159.115 421,-162.948 421,-162.948 421,-170.615 421,-170.615 421,-174.448 417.167,-178.281 413.333,-178.281"/>
<text text-anchor="middle" x="349" y="-163.081" font-family="Arial" font-size="14.00" fill="#c6c5fe">combineReducers.ts</text>
</g>
<!-- combineReducers.ts&#45;&gt;types/actions.ts -->
<g id="edge8" class="edge"><title>combineReducers.ts&#45;&gt;types/actions.ts</title>
<path fill="none" stroke="#757575" d="M421.159,-161.527C472.246,-159.627 542.324,-160.883 602,-175.781 678.755,-194.943 696.03,-210.118 762,-253.781 789.551,-272.017 817.708,-297.757 835.489,-315.071"/>
<polygon fill="#757575" stroke="#757575" points="833.314,-317.841 842.89,-322.375 838.231,-312.859 833.314,-317.841"/>
</g>
<!-- combineReducers.ts&#45;&gt;types/reducers.ts -->
<g id="edge9" class="edge"><title>combineReducers.ts&#45;&gt;types/reducers.ts</title>
<path fill="none" stroke="#757575" d="M421.117,-173.795C472.649,-180.495 543.289,-193.06 602,-215.781 628.977,-226.222 656.902,-244.082 675.822,-257.423"/>
<polygon fill="#757575" stroke="#757575" points="673.933,-260.375 684.094,-263.374 678.021,-254.693 673.933,-260.375"/>
</g>
<!-- combineReducers.ts&#45;&gt;types/store.ts -->
<g id="edge10" class="edge"><title>combineReducers.ts&#45;&gt;types/store.ts</title>
<path fill="none" stroke="#757575" d="M360.989,-178.259C391.061,-209.667 474.926,-297.26 511.992,-335.973"/>
<polygon fill="#757575" stroke="#757575" points="509.711,-338.652 519.155,-343.454 514.767,-333.811 509.711,-338.652"/>
</g>
<!-- utils/actionTypes.ts -->
<g id="node9" class="node"><title>utils/actionTypes.ts</title>
<path fill="none" stroke="#cfffac" d="M591.333,-50.2815C591.333,-50.2815 470.667,-50.2815 470.667,-50.2815 466.833,-50.2815 463,-46.4482 463,-42.6148 463,-42.6148 463,-34.9482 463,-34.9482 463,-31.1148 466.833,-27.2815 470.667,-27.2815 470.667,-27.2815 591.333,-27.2815 591.333,-27.2815 595.167,-27.2815 599,-31.1148 599,-34.9482 599,-34.9482 599,-42.6148 599,-42.6148 599,-46.4482 595.167,-50.2815 591.333,-50.2815"/>
<text text-anchor="middle" x="531" y="-35.0815" font-family="Arial" font-size="14.00" fill="#cfffac">utils/actionTypes.ts</text>
</g>
<!-- combineReducers.ts&#45;&gt;utils/actionTypes.ts -->
<g id="edge11" class="edge"><title>combineReducers.ts&#45;&gt;utils/actionTypes.ts</title>
<path fill="none" stroke="#757575" d="M385.428,-155.391C398.189,-150.419 412.311,-143.857 424,-135.781 443.141,-122.558 443.079,-113.748 460,-97.7815 475.317,-83.3288 493.531,-68.0316 507.539,-56.6357"/>
<polygon fill="#757575" stroke="#757575" points="510.07,-59.0906 515.655,-50.0868 505.674,-53.643 510.07,-59.0906"/>
</g>
<!-- utils/isPlainObject.ts -->
<g id="node10" class="node"><title>utils/isPlainObject.ts</title>
<path fill="none" stroke="#cfffac" d="M594.333,-130.281C594.333,-130.281 467.667,-130.281 467.667,-130.281 463.833,-130.281 460,-126.448 460,-122.615 460,-122.615 460,-114.948 460,-114.948 460,-111.115 463.833,-107.281 467.667,-107.281 467.667,-107.281 594.333,-107.281 594.333,-107.281 598.167,-107.281 602,-111.115 602,-114.948 602,-114.948 602,-122.615 602,-122.615 602,-126.448 598.167,-130.281 594.333,-130.281"/>
<text text-anchor="middle" x="531" y="-115.081" font-family="Arial" font-size="14.00" fill="#cfffac">utils/isPlainObject.ts</text>
</g>
<!-- combineReducers.ts&#45;&gt;utils/isPlainObject.ts -->
<g id="edge12" class="edge"><title>combineReducers.ts&#45;&gt;utils/isPlainObject.ts</title>
<path fill="none" stroke="#757575" d="M392.202,-155.528C417.837,-148.692 450.761,-139.912 477.998,-132.649"/>
<polygon fill="#757575" stroke="#757575" points="478.99,-136.006 487.751,-130.048 477.187,-129.243 478.99,-136.006"/>
</g>
<!-- utils/warning.ts -->
<g id="node11" class="node"><title>utils/warning.ts</title>
<path fill="none" stroke="#cfffac" d="M577.833,-248.281C577.833,-248.281 484.167,-248.281 484.167,-248.281 480.333,-248.281 476.5,-244.448 476.5,-240.615 476.5,-240.615 476.5,-232.948 476.5,-232.948 476.5,-229.115 480.333,-225.281 484.167,-225.281 484.167,-225.281 577.833,-225.281 577.833,-225.281 581.667,-225.281 585.5,-229.115 585.5,-232.948 585.5,-232.948 585.5,-240.615 585.5,-240.615 585.5,-244.448 581.667,-248.281 577.833,-248.281"/>
<text text-anchor="middle" x="531" y="-233.081" font-family="Arial" font-size="14.00" fill="#cfffac">utils/warning.ts</text>
</g>
<!-- combineReducers.ts&#45;&gt;utils/warning.ts -->
<g id="edge13" class="edge"><title>combineReducers.ts&#45;&gt;utils/warning.ts</title>
<path fill="none" stroke="#757575" d="M384.979,-178.061C397.428,-182.34 411.462,-187.469 424,-192.781 440.471,-199.76 443.591,-203.657 460,-210.781 468.914,-214.652 478.609,-218.485 487.865,-221.971"/>
<polygon fill="#757575" stroke="#757575" points="486.706,-225.274 497.299,-225.464 489.137,-218.709 486.706,-225.274"/>
</g>
<!-- createStore.ts -->
<g id="node12" class="node"><title>createStore.ts</title>
<path fill="none" stroke="#c6c5fe" d="M393.333,-127.281C393.333,-127.281 304.667,-127.281 304.667,-127.281 300.833,-127.281 297,-123.448 297,-119.615 297,-119.615 297,-111.948 297,-111.948 297,-108.115 300.833,-104.281 304.667,-104.281 304.667,-104.281 393.333,-104.281 393.333,-104.281 397.167,-104.281 401,-108.115 401,-111.948 401,-111.948 401,-119.615 401,-119.615 401,-123.448 397.167,-127.281 393.333,-127.281"/>
<text text-anchor="middle" x="349" y="-112.081" font-family="Arial" font-size="14.00" fill="#c6c5fe">createStore.ts</text>
</g>
<!-- createStore.ts&#45;&gt;types/actions.ts -->
<g id="edge14" class="edge"><title>createStore.ts&#45;&gt;types/actions.ts</title>
<path fill="none" stroke="#757575" d="M358.071,-104.429C374.369,-82.6149 413.63,-35.4413 460,-17.7815 518.979,4.68022 543.88,6.81784 602,-17.7815 738.222,-75.438 820.974,-252.412 845.948,-313.103"/>
<polygon fill="#757575" stroke="#757575" points="842.719,-314.454 849.701,-322.423 849.212,-311.839 842.719,-314.454"/>
</g>
<!-- createStore.ts&#45;&gt;types/reducers.ts -->
<g id="edge15" class="edge"><title>createStore.ts&#45;&gt;types/reducers.ts</title>
<path fill="none" stroke="#757575" d="M376.93,-104.487C425.668,-85.9592 530.108,-55.2001 602,-97.7815 659.873,-132.059 685.493,-214.447 694.691,-253.525"/>
<polygon fill="#757575" stroke="#757575" points="691.281,-254.317 696.863,-263.323 698.115,-252.802 691.281,-254.317"/>
</g>
<!-- createStore.ts&#45;&gt;types/store.ts -->
<g id="edge16" class="edge"><title>createStore.ts&#45;&gt;types/store.ts</title>
<path fill="none" stroke="#757575" d="M395.737,-127.15C406.131,-131.541 416.349,-137.563 424,-145.781 459.338,-183.742 436.654,-210.47 460,-256.781 474.855,-286.248 498,-316.631 513.566,-335.6"/>
<polygon fill="#757575" stroke="#757575" points="511.036,-338.03 520.128,-343.468 516.411,-333.546 511.036,-338.03"/>
</g>
<!-- createStore.ts&#45;&gt;utils/actionTypes.ts -->
<g id="edge17" class="edge"><title>createStore.ts&#45;&gt;utils/actionTypes.ts</title>
<path fill="none" stroke="#757575" d="M372.942,-104.503C395.034,-93.7966 429.495,-77.4953 460,-64.7815 469.148,-60.9689 479.074,-57.1149 488.498,-53.5842"/>
<polygon fill="#757575" stroke="#757575" points="489.92,-56.79 498.084,-50.0371 487.491,-50.2251 489.92,-56.79"/>
</g>
<!-- createStore.ts&#45;&gt;utils/isPlainObject.ts -->
<g id="edge18" class="edge"><title>createStore.ts&#45;&gt;utils/isPlainObject.ts</title>
<path fill="none" stroke="#757575" d="M401.099,-116.633C416.248,-116.886 433.218,-117.168 449.744,-117.444"/>
<polygon fill="#757575" stroke="#757575" points="449.899,-120.947 459.956,-117.614 450.016,-113.948 449.899,-120.947"/>
</g>
<!-- index.ts -->
<g id="node13" class="node"><title>index.ts</title>
<path fill="none" stroke="#c6c5fe" d="M57.8333,-296.281C57.8333,-296.281 8.16667,-296.281 8.16667,-296.281 4.33333,-296.281 0.5,-292.448 0.5,-288.615 0.5,-288.615 0.5,-280.948 0.5,-280.948 0.5,-277.115 4.33333,-273.281 8.16667,-273.281 8.16667,-273.281 57.8333,-273.281 57.8333,-273.281 61.6667,-273.281 65.5,-277.115 65.5,-280.948 65.5,-280.948 65.5,-288.615 65.5,-288.615 65.5,-292.448 61.6667,-296.281 57.8333,-296.281"/>
<text text-anchor="middle" x="33" y="-281.081" font-family="Arial" font-size="14.00" fill="#c6c5fe">index.ts</text>
</g>
<!-- index.ts&#45;&gt;applyMiddleware.ts -->
<g id="edge19" class="edge"><title>index.ts&#45;&gt;applyMiddleware.ts</title>
<path fill="none" stroke="#757575" d="M39.2912,-296.085C49.189,-316.249 72.2231,-358.829 102,-385.781 110.783,-393.732 121.64,-400.531 132.037,-406.01"/>
<polygon fill="#757575" stroke="#757575" points="130.482,-409.145 140.992,-410.48 133.608,-402.882 130.482,-409.145"/>
</g>
<!-- index.ts&#45;&gt;compose.ts -->
<g id="edge22" class="edge"><title>index.ts&#45;&gt;compose.ts</title>
<path fill="none" stroke="#757575" d="M35.6495,-296.123C40.4195,-324.81 56.8852,-400.884 102,-441.781 155.857,-490.604 240.107,-509.272 294.688,-516.398"/>
<polygon fill="#757575" stroke="#757575" points="294.506,-519.901 304.856,-517.637 295.352,-512.953 294.506,-519.901"/>
</g>
<!-- index.ts&#45;&gt;types/actions.ts -->
<g id="edge24" class="edge"><title>index.ts&#45;&gt;types/actions.ts</title>
<path fill="none" stroke="#757575" d="M34.3622,-296.316C36.0739,-330.619 45.8756,-433.006 102,-487.781 183.617,-567.437 233.954,-560.781 348,-560.781 348,-560.781 348,-560.781 532,-560.781 675.512,-560.781 800.082,-408.293 840.356,-353.277"/>
<polygon fill="#757575" stroke="#757575" points="843.285,-355.199 846.287,-345.038 837.604,-351.109 843.285,-355.199"/>
</g>
<!-- index.ts&#45;&gt;types/middleware.ts -->
<g id="edge25" class="edge"><title>index.ts&#45;&gt;types/middleware.ts</title>
<path fill="none" stroke="#757575" d="M45.4632,-296.414C58.1924,-308.686 79.8778,-327.743 102,-338.781 154.642,-365.049 219.17,-381.315 268.928,-390.872"/>
<polygon fill="#757575" stroke="#757575" points="268.52,-394.356 278.993,-392.753 269.806,-387.476 268.52,-394.356"/>
</g>
<!-- index.ts&#45;&gt;types/reducers.ts -->
<g id="edge26" class="edge"><title>index.ts&#45;&gt;types/reducers.ts</title>
<path fill="none" stroke="#757575" d="M65.7759,-281.111C111.667,-276.013 199.203,-267.048 274,-263.781 398.585,-258.341 543.839,-264.873 628.216,-269.944"/>
<polygon fill="#757575" stroke="#757575" points="628.255,-273.453 638.45,-270.57 628.682,-266.466 628.255,-273.453"/>
</g>
<!-- index.ts&#45;&gt;types/store.ts -->
<g id="edge27" class="edge"><title>index.ts&#45;&gt;types/store.ts</title>
<path fill="none" stroke="#757575" d="M65.7368,-291.815C77.1376,-294.21 90.1137,-296.783 102,-298.781 233.067,-320.818 387.95,-339.199 470.745,-348.412"/>
<polygon fill="#757575" stroke="#757575" points="470.397,-351.895 480.722,-349.517 471.168,-344.938 470.397,-351.895"/>
</g>
<!-- index.ts&#45;&gt;bindActionCreators.ts -->
<g id="edge20" class="edge"><title>index.ts&#45;&gt;bindActionCreators.ts</title>
<path fill="none" stroke="#757575" d="M65.5452,-284.781C111.456,-284.781 198.324,-284.781 263.656,-284.781"/>
<polygon fill="#757575" stroke="#757575" points="263.948,-288.282 273.948,-284.781 263.947,-281.282 263.948,-288.282"/>
</g>
<!-- index.ts&#45;&gt;combineReducers.ts -->
<g id="edge21" class="edge"><title>index.ts&#45;&gt;combineReducers.ts</title>
<path fill="none" stroke="#757575" d="M38.6979,-273.327C47.6546,-253.124 69.2472,-211.526 102,-192.781 151.605,-164.393 216.115,-158.494 266.629,-159.374"/>
<polygon fill="#757575" stroke="#757575" points="266.771,-162.878 276.86,-159.647 266.957,-155.881 266.771,-162.878"/>
</g>
<!-- index.ts&#45;&gt;utils/actionTypes.ts -->
<g id="edge28" class="edge"><title>index.ts&#45;&gt;utils/actionTypes.ts</title>
<path fill="none" stroke="#757575" d="M34.7256,-273.14C37.3769,-241.34 49.38,-152.533 102,-109.781 201.875,-28.6383 359.065,-24.1777 452.588,-30.1883"/>
<polygon fill="#757575" stroke="#757575" points="452.611,-33.6984 462.831,-30.9049 453.099,-26.7155 452.611,-33.6984"/>
</g>
<!-- index.ts&#45;&gt;utils/warning.ts -->
<g id="edge29" class="edge"><title>index.ts&#45;&gt;utils/warning.ts</title>
<path fill="none" stroke="#757575" d="M43.6735,-273.451C55.7551,-260.265 77.8016,-239.221 102,-230.781 227.414,-187.042 386.336,-207.303 470.843,-223.518"/>
<polygon fill="#757575" stroke="#757575" points="470.285,-226.976 480.773,-225.471 471.636,-220.107 470.285,-226.976"/>
</g>
<!-- index.ts&#45;&gt;createStore.ts -->
<g id="edge23" class="edge"><title>index.ts&#45;&gt;createStore.ts</title>
<path fill="none" stroke="#757575" d="M36.4368,-273.207C42.5112,-247.45 60.8916,-185.343 102,-155.781 155.794,-117.098 233.252,-110.381 286.817,-111.228"/>
<polygon fill="#757575" stroke="#757575" points="286.778,-114.729 296.863,-111.48 286.953,-107.731 286.778,-114.729"/>
</g>
</g>
</svg>
