<?xml version="1.0" encoding="UTF-8" standalone="no"?>
<!DOCTYPE svg PUBLIC "-//W3C//DTD SVG 1.1//EN"
 "http://www.w3.org/Graphics/SVG/1.1/DTD/svg11.dtd">
<!-- Generated by graphviz version 2.40.1 (20161225.0304)
 -->
<!-- Title: %0 Pages: 1 -->
<svg width="343pt" height="91pt"
 viewBox="0.00 0.00 342.85 91.40" xmlns="http://www.w3.org/2000/svg" xmlns:xlink="http://www.w3.org/1999/xlink">
<g id="graph0" class="graph" transform="scale(1 1) rotate(0) translate(4 87.4)">
<title>%0</title>
<polygon fill="#ffffff" stroke="transparent" points="-4,4 -4,-87.4 338.8479,-87.4 338.8479,4 -4,4"/>
<text text-anchor="middle" x="167.424" y="-65" font-family="Roboto Condensed, sans-serif" font-size="16.00" fill="#000000">redux</text>
<!-- redux@4.0.5 -->
<g id="node1" class="node">
<title>redux@4.0.5</title>
<path fill="none" stroke="#000000" d="M56.7949,-37.3011C56.7949,-37.3011 6.3798,-37.3011 6.3798,-37.3011 3.1461,-37.3011 -.0876,-34.0674 -.0876,-30.8337 -.0876,-30.8337 -.0876,-24.3663 -.0876,-24.3663 -.0876,-21.1326 3.1461,-17.8989 6.3798,-17.8989 6.3798,-17.8989 56.7949,-17.8989 56.7949,-17.8989 60.0286,-17.8989 63.2623,-21.1326 63.2623,-24.3663 63.2623,-24.3663 63.2623,-30.8337 63.2623,-30.8337 63.2623,-34.0674 60.0286,-37.3011 56.7949,-37.3011"/>
<text text-anchor="middle" x="31.5874" y="-24.3" font-family="Roboto Condensed, sans-serif" font-size="11.00" fill="#000000">redux@4.0.5</text>
</g>
<!-- loose&#45;envify@1.4.0 -->
<g id="node2" class="node">
<title>loose&#45;envify@1.4.0</title>
<path fill="none" stroke="#000000" d="M200.233,-56.3011C200.233,-56.3011 119.9453,-56.3011 119.9453,-56.3011 116.7116,-56.3011 113.4779,-53.0674 113.4779,-49.8337 113.4779,-49.8337 113.4779,-43.3663 113.4779,-43.3663 113.4779,-40.1326 116.7116,-36.8989 119.9453,-36.8989 119.9453,-36.8989 200.233,-36.8989 200.233,-36.8989 203.4667,-36.8989 206.7004,-40.1326 206.7004,-43.3663 206.7004,-43.3663 206.7004,-49.8337 206.7004,-49.8337 206.7004,-53.0674 203.4667,-56.3011 200.233,-56.3011"/>
<text text-anchor="middle" x="160.0892" y="-43.3" font-family="Roboto Condensed, sans-serif" font-size="11.00" fill="#000000">loose&#45;envify@1.4.0</text>
</g>
<!-- redux@4.0.5&#45;&gt;loose&#45;envify@1.4.0 -->
<g id="edge1" class="edge">
<title>redux@4.0.5&#45;&gt;loose&#45;envify@1.4.0</title>
<path fill="none" stroke="#000000" d="M63.3518,-32.2966C75.3154,-34.0655 89.3182,-36.136 102.8955,-38.1435"/>
<polygon fill="#000000" stroke="#000000" points="102.75,-41.6599 113.1544,-39.6603 103.7739,-34.7352 102.75,-41.6599"/>
</g>
<!-- symbol&#45;observable@1.2.0 -->
<g id="node3" class="node">
<title>symbol&#45;observable@1.2.0</title>
<path fill="none" stroke="#000000" d="M214.4508,-19.3011C214.4508,-19.3011 105.7275,-19.3011 105.7275,-19.3011 102.4938,-19.3011 99.2601,-16.0674 99.2601,-12.8337 99.2601,-12.8337 99.2601,-6.3663 99.2601,-6.3663 99.2601,-3.1326 102.4938,.1011 105.7275,.1011 105.7275,.1011 214.4508,.1011 214.4508,.1011 217.6845,.1011 220.9182,-3.1326 220.9182,-6.3663 220.9182,-6.3663 220.9182,-12.8337 220.9182,-12.8337 220.9182,-16.0674 217.6845,-19.3011 214.4508,-19.3011"/>
<text text-anchor="middle" x="160.0892" y="-6.3" font-family="Roboto Condensed, sans-serif" font-size="11.00" fill="#000000">symbol&#45;observable@1.2.0</text>
</g>
<!-- redux@4.0.5&#45;&gt;symbol&#45;observable@1.2.0 -->
<g id="edge2" class="edge">
<title>redux@4.0.5&#45;&gt;symbol&#45;observable@1.2.0</title>
<path fill="none" stroke="#000000" d="M63.3518,-23.1506C71.2358,-22.0462 80.0054,-20.8178 88.9552,-19.5642"/>
<polygon fill="#000000" stroke="#000000" points="89.681,-22.9967 99.0988,-18.1433 88.7099,-16.0644 89.681,-22.9967"/>
</g>
<!-- js&#45;tokens@6.0.0 -->
<g id="node4" class="node">
<title>js&#45;tokens@6.0.0</title>
<path fill="none" stroke="#000000" d="M328.3028,-56.3011C328.3028,-56.3011 263.5487,-56.3011 263.5487,-56.3011 260.315,-56.3011 257.0813,-53.0674 257.0813,-49.8337 257.0813,-49.8337 257.0813,-43.3663 257.0813,-43.3663 257.0813,-40.1326 260.315,-36.8989 263.5487,-36.8989 263.5487,-36.8989 328.3028,-36.8989 328.3028,-36.8989 331.5365,-36.8989 334.7702,-40.1326 334.7702,-43.3663 334.7702,-43.3663 334.7702,-49.8337 334.7702,-49.8337 334.7702,-53.0674 331.5365,-56.3011 328.3028,-56.3011"/>
<text text-anchor="middle" x="295.9258" y="-43.3" font-family="Roboto Condensed, sans-serif" font-size="11.00" fill="#000000">js&#45;tokens@6.0.0</text>
</g>
<!-- loose&#45;envify@1.4.0&#45;&gt;js&#45;tokens@6.0.0 -->
<g id="edge3" class="edge">
<title>loose&#45;envify@1.4.0&#45;&gt;js&#45;tokens@6.0.0</title>
<path fill="none" stroke="#000000" d="M206.8364,-46.6C219.6742,-46.6 233.6332,-46.6 246.6104,-46.6"/>
<polygon fill="#000000" stroke="#000000" points="246.7672,-50.1001 256.7672,-46.6 246.7672,-43.1001 246.7672,-50.1001"/>
</g>
</g>
</svg>
